<?xml version="1.0" encoding="UTF-8"?> <svg xmlns="http://www.w3.org/2000/svg" width="168" height="76" viewBox="0 0 168 76" fill="none"><path d="M43.4956 38.5301C43.4956 37.8147 43.5676 37.0273 43.7101 36.2055L44.9624 29.0158C46.0362 23.0423 49.2906 20.2168 54.5487 20.2168H54.7632C59.1979 20.2168 61.9529 22.5414 61.9529 27.0121C61.9529 27.7275 61.8809 28.5148 61.7385 29.3007L60.4502 36.5264C59.3779 42.4999 56.1579 45.3254 50.8998 45.3254H50.6854C46.2491 45.3269 43.4956 42.9664 43.4956 38.5301ZM51.1847 41.7501C54.0822 41.7501 55.8339 40.2833 56.5493 36.2055L57.8016 28.9798C58.5169 25.01 57.0862 23.7937 54.4391 23.7937H54.2247C51.3632 23.7937 49.646 25.2604 48.9306 29.3022L47.6078 36.528C46.8925 40.5338 48.3232 41.7501 51.0063 41.7501H51.1847Z" fill="#1746FF"></path><path d="M86.418 38.5301C86.418 37.8147 86.49 37.0273 86.6324 36.2055L87.8847 29.0158C88.9586 23.0423 92.213 20.2168 97.4711 20.2168H97.6855C102.12 20.2168 104.875 22.5414 104.875 27.0121C104.875 27.7275 104.803 28.5148 104.661 29.3007L103.373 36.5264C102.299 42.4999 99.0803 45.3254 93.8222 45.3254H93.6077C89.1715 45.3269 86.418 42.9664 86.418 38.5301ZM94.1071 41.7501C97.0046 41.7501 98.7562 40.2833 99.4716 36.2055L100.724 28.9798C101.439 25.01 100.009 23.7937 97.3615 23.7937H97.147C94.2855 23.7937 92.5683 25.2604 91.8529 29.3022L90.5302 36.528C89.8148 40.5338 91.2456 41.7501 93.9286 41.7501H94.1071Z" fill="#1746FF"></path><path d="M111.384 20.5737H116.929L119.826 39.2815H120.219L123.295 20.5737H127.122L122.83 44.9685H117.251L114.424 26.2623H113.995L110.919 44.9685H107.092L111.384 20.5737Z" fill="#1746FF"></path><path d="M12.4118 20.5737H4.29225L0 44.9685H3.96979L5.2033 39.3597L2.5359 36.0286L5.50698 36.0271H10.4082C15.9167 36.0271 18.7782 33.6665 19.564 28.8013C19.7065 27.9435 19.7785 27.2985 19.7785 26.6552C19.7801 22.6134 17.241 20.5737 12.4118 20.5737ZM15.7383 28.5148C15.2733 31.1259 14.021 32.3782 10.7666 32.3782H6.25993L7.61867 24.2586H12.3038C15.3438 24.2586 16.3096 25.1884 15.7383 28.5148Z" fill="#1746FF"></path><path d="M37.486 20.5737L35.6608 31.0899H27.5067L29.3304 20.5737H25.359L21.0684 44.9685H25.0381L26.7914 34.7748H31.6894L35.3336 32.541L34.9454 34.7748L33.1937 44.9685H37.1635L41.4558 20.5737H37.486Z" fill="#1746FF"></path><path d="M67.3172 20.5737L66.6738 24.2586H70.1928L74.0906 21.7321L73.6804 24.2586L73.6366 24.5278L73.5881 24.8049L70.0347 44.9685H74.006L77.6534 24.2586H84.6647L85.308 20.5737H67.3172Z" fill="#1746FF"></path><path d="M17.7607 69.2364C17.7607 68.7355 17.8327 68.1282 17.9392 67.5552H21.837C21.228 70.9536 22.6964 71.8475 25.8068 71.8475H26.0212C28.7387 71.8475 30.3135 70.8096 30.7064 68.6995C31.2073 65.6596 28.0953 64.9802 25.4843 63.9063C21.9794 62.4036 19.5468 60.4375 20.2982 56.5021C21.0856 52.4243 24.268 50.3142 28.4538 50.3142H28.6683C32.9965 50.3142 36.0365 52.3179 36.0365 56.4301C36.0365 57.003 35.9645 57.5744 35.858 58.2178H31.9962C32.5692 54.7489 31.1024 53.8895 28.3129 53.8895H28.0985C25.8099 53.8895 24.5576 54.9634 24.1991 56.8575C23.7702 59.3261 25.7019 60.1119 28.5274 61.2217C32.0683 62.5805 35.4667 64.1192 34.5728 69.1269C33.8215 73.3471 30.423 75.4228 25.6659 75.4228H25.4514C20.9071 75.4244 17.7607 73.3847 17.7607 69.2364Z" fill="#1746FF"></path><path d="M60.9336 68.6275C60.9336 67.9121 61.0056 67.1247 61.148 66.3029L62.4003 59.1132C63.4742 53.1397 66.7286 50.3142 71.9867 50.3142H72.2011C76.6358 50.3142 79.3909 52.6388 79.3909 57.1111C79.3909 57.8264 79.3189 58.6138 79.1764 59.3996L77.8881 66.6254C76.8143 72.5989 73.5959 75.4244 68.3378 75.4244H68.1234C63.6871 75.4244 60.9336 73.0638 60.9336 68.6275ZM68.6227 71.8475C71.5202 71.8475 73.2719 70.3807 73.9872 66.3029L75.2395 59.0772C75.9549 55.1074 74.5242 53.8911 71.8771 53.8911H71.6627C68.8012 53.8911 67.0839 55.3578 66.3686 59.3996L65.0458 66.6254C64.3305 70.6312 65.7612 71.8475 68.4443 71.8475H68.6227Z" fill="#1746FF"></path><path d="M125.067 69.2364C125.067 68.7355 125.139 68.1282 125.245 67.5552H129.143C128.534 70.9536 130.001 71.8475 133.113 71.8475H133.327C136.045 71.8475 137.62 70.8096 138.013 68.6995C138.513 65.6596 135.401 64.9802 132.79 63.9063C129.286 62.4036 126.853 60.4375 127.604 56.5021C128.392 52.4243 131.574 50.3142 135.76 50.3142H135.974C140.303 50.3142 143.343 52.3179 143.343 56.4301C143.343 57.003 143.271 57.5744 143.164 58.2178H139.302C139.875 54.7489 138.409 53.8895 135.618 53.8895H135.403C133.114 53.8895 131.862 54.9634 131.504 56.8575C131.075 59.3261 133.006 60.1119 135.832 61.2217C139.373 62.5805 142.771 64.1192 141.877 69.1269C141.126 73.3471 137.728 75.4228 132.97 75.4228H132.756C128.215 75.4244 125.067 73.3847 125.067 69.2364Z" fill="#1746FF"></path><path d="M51.3113 50.6727H43.1917L38.8994 75.0659H42.8692L44.1027 69.4587L41.4447 66.1339L44.408 66.1229H49.3091C54.8177 66.1229 57.6792 63.7623 58.4666 58.8972C58.609 58.0393 58.681 57.3944 58.681 56.751C58.6795 52.7108 56.1404 50.6727 51.3113 50.6727ZM54.6377 58.6123C54.1728 61.2233 52.9205 62.4756 49.666 62.4756H45.1593L46.5181 54.356H51.2032C54.2432 54.356 55.2106 55.2859 54.6377 58.6123Z" fill="#1746FF"></path><path d="M106.217 50.6727L105.574 54.356H109.088L112.986 51.8295L112.583 54.356L108.935 75.0659H112.906L116.553 54.356H123.565L124.208 50.6727H106.217Z" fill="#1746FF"></path><path d="M93.9475 50.6727H86.3289L82.0366 75.0675H86.0064L87.5452 66.1261H90.0482L93.8755 75.0675H98.0598L94.2684 66.3045V65.946C98.2382 65.3387 100.42 63.0125 101.1 58.9003C101.244 58.0425 101.278 57.3975 101.278 56.7542C101.28 52.7108 98.7407 50.6727 93.9475 50.6727ZM97.238 58.6123C96.773 61.2233 95.5207 62.4756 92.2663 62.4756H88.2965H86.5856L88.511 61.1951L89.6553 54.356H93.8051C96.8811 54.356 97.8109 55.2859 97.238 58.6123Z" fill="#1746FF"></path><path d="M151.198 31.8115C159.983 31.8115 167.103 24.6906 167.103 15.9058C167.103 7.12088 159.983 0 151.198 0C142.413 0 135.292 7.12088 135.292 15.9058C135.292 24.6906 142.414 31.8115 151.198 31.8115ZM142.216 15.4127C146.509 14.9524 149.934 11.6213 150.517 7.3416L151.198 2.33241L151.783 7.13654C152.306 11.4225 155.683 14.799 159.967 15.3203L164.771 15.9058L159.967 16.4912C155.681 17.014 152.304 20.3905 151.783 24.675L151.198 29.4775L150.374 24.4683C149.72 20.4954 146.607 17.3803 142.634 16.7276L137.626 15.9042L142.216 15.4127Z" fill="#1746FF"></path></svg> 